<?xml version="1.0"?>
<svg xmlns="http://www.w3.org/2000/svg" xmlns:xlink="http://www.w3.org/1999/xlink" version="1.1" viewBox="0 0 22 22" enable-background="new 0 0 22 22" width="512px" height="512px" class=""><g><g>
    <path d="m15,4c-1.488,0-2.866,0.468-4,1.26 0.678,0.473 1.268,1.063 1.741,1.74h-3.482c0.473-0.677 1.063-1.267 1.741-1.74-1.134-0.792-2.512-1.26-4-1.26-3.866,0-7,3.134-7,7 0,3.866 3.134,7 7,7 1.488,0 2.866-0.468 4-1.26-0.678-0.473-1.268-1.063-1.741-1.74h3.483c-0.474,0.677-1.064,1.267-1.741,1.74 1.134,0.792 2.512,1.26 4,1.26 3.866,0 7-3.134 7-7-0.001-3.866-3.135-7-7.001-7zm-1.303,5c0.097,0.325 0.176,0.657 0.225,1h-5.844c0.049-0.343 0.128-0.675 0.225-1h5.394zm-5.394,4c-0.097-0.325-0.176-0.657-0.225-1h5.845c-0.049,0.343-0.128,0.675-0.225,1h-5.395z" data-original="#000000" class="active-path" data-old_color="#000000" fill="#D3D3D6"/>
  </g></g> </svg>
