<svg xmlns="http://www.w3.org/2000/svg" width="512px" height="512px" viewBox="0 0 22.001 14">
  <g id="mastercard_Активна_" data-name="mastercard (Активна)" transform="translate(0 -4)">
    <g id="Group_361" data-name="Group 361">
      <path id="Path_97" data-name="Path 97" d="M15,4a6.962,6.962,0,0,0-4,1.26A7.037,7.037,0,0,1,12.741,7H9.259A7.037,7.037,0,0,1,11,5.26a7,7,0,1,0,0,11.48A7.037,7.037,0,0,1,9.259,15h3.483A7.071,7.071,0,0,1,11,16.74,7,7,0,1,0,15,4ZM13.7,9a6.906,6.906,0,0,1,.225,1H8.078A6.906,6.906,0,0,1,8.3,9H13.7ZM8.3,13a6.906,6.906,0,0,1-.225-1h5.845a6.906,6.906,0,0,1-.225,1H8.3Z" fill="#34c28d"/>
    </g>
  </g>
</svg>
