<svg xmlns="http://www.w3.org/2000/svg" width="512px" height="512px" viewBox="0 0 45.371 11.111">
  <g id="okpay" transform="translate(-0.094 -190.966)">
    <g id="Group_363" data-name="Group 363" transform="translate(0.094 190.966)">
      <path id="Path_99" data-name="Path 99" d="M6.194,190.966a4.818,4.818,0,0,0-4.916,3.676H.166c-.016.186-.029.371-.04.559-.013.212-.023.427-.029.641h.968c-.019.212-.029.428-.029.646s.01.417.027.62H.094c.007.285.021.568.038.85.007.117.016.234.026.35H1.272a4.82,4.82,0,0,0,4.922,3.7c3.35,0,5.158-2.472,5.158-5.521S9.544,190.966,6.194,190.966Zm0,9.4a2.909,2.909,0,0,1-2.816-2.058H4.9l.685-1.2H3.1a6.008,6.008,0,0,1,0-1.267H6.12l.685-1.2H3.387a2.9,2.9,0,0,1,2.807-2.033c2.027,0,3.122,1.736,3.122,3.879S8.221,200.366,6.194,200.366Z" transform="translate(-0.094 -190.966)" fill="#d3d3d6"/>
      <path id="Path_100" data-name="Path 100" d="M149.1,209.99l-4.571-4.571,4.186-3.944a.494.494,0,0,0-.338-.853h-.915a.716.716,0,0,0-.492.2l-3.526,3.334v-2.663a.822.822,0,0,0-.822-.822h-.37a.822.822,0,0,0-.822.822v8.528a.822.822,0,0,0,.822.822h.37a.822.822,0,0,0,.822-.822v-3.212l3.818,3.818a.716.716,0,0,0,.506.21h.984A.493.493,0,0,0,149.1,209.99Z" transform="translate(-129.352 -199.797)" fill="#d3d3d6"/>
    </g>
    <g id="Group_364" data-name="Group 364" transform="translate(22.836 191.812)">
      <path id="Path_101" data-name="Path 101" d="M270.695,201.153h-3.5a.874.874,0,0,0-.874.874v8.424a.874.874,0,0,0,.874.874h.267a.873.873,0,0,0,.873-.874v-2.965h2.358a2.9,2.9,0,0,0,2.9-2.9v-.529A2.9,2.9,0,0,0,270.695,201.153Zm.971,3.384a1.428,1.428,0,0,1-1.428,1.428h-1.593a.309.309,0,0,1-.308-.308v-2.524a.309.309,0,0,1,.308-.308h1.593a1.428,1.428,0,0,1,1.428,1.428Z" transform="translate(-266.323 -201.128)" fill="#d3d3d6"/>
      <path id="Path_102" data-name="Path 102" d="M343.763,210.6l-3.558-8.812a1.47,1.47,0,0,0-2.726,0l-3.557,8.812a.388.388,0,0,0,.36.534h.9a.824.824,0,0,0,.763-.515l.9-2.226h3.991l.9,2.226a.824.824,0,0,0,.763.515h.9A.388.388,0,0,0,343.763,210.6ZM340,206.847h-2.322a.143.143,0,0,1-.132-.2l1.293-3.2,1.293,3.2A.143.143,0,0,1,340,206.847Z" transform="translate(-328.122 -200.866)" fill="#d3d3d6"/>
      <path id="Union_1" data-name="Union 1" d="M4.376,10.07H4.288A.874.874,0,0,1,3.414,9.2V5.279L1.708,2.871h0V2.854L.062.527A.335.335,0,0,1,.335,0h1.2a.607.607,0,0,1,.5.257L4.465,3.691,6.9.257A.607.607,0,0,1,7.393,0h1.2a.335.335,0,0,1,.273.527L7.22,2.854v.017h0L5.515,5.279V9.2a.874.874,0,0,1-.874.874Z" transform="translate(13.699 0.126)" fill="#d3d3d6"/>
    </g>
  </g>
</svg>
