<svg xmlns="http://www.w3.org/2000/svg" width="512px" height="512px" viewBox="0 0 13.63 14">
  <g id="paypal-logo_Активна_" data-name="paypal-logo (Активна)" transform="translate(-1.189)">
    <g id="Group_362" data-name="Group 362" transform="translate(1.189)">
      <path id="PayPal" d="M10.035,0H3.9L1.189,12.467h3.6l.881-4.131h2.57A5.013,5.013,0,0,0,13.3,4.243,3.258,3.258,0,0,0,10.035,0ZM7.353,5.949H6.181l.77-3.41H8.713a1.214,1.214,0,0,1,1.212.889,1.3,1.3,0,0,0-.233-.037H7.931ZM9.925,4.243a2.247,2.247,0,0,1-1.99,1.7l.422-1.87h1.6C9.944,4.129,9.94,4.184,9.925,4.243Zm4.357.852a3.8,3.8,0,0,0-.169-2.381,3.443,3.443,0,0,1,.595,3.062A5.013,5.013,0,0,1,9.642,9.869H7.073L6.192,14h-3.6l.149-.681H5.766l.881-4.131h2.57A5.013,5.013,0,0,0,14.281,5.1Z" transform="translate(-1.189)" fill="#34c28d"/>
    </g>
  </g>
</svg>
