<svg xmlns="http://www.w3.org/2000/svg" width="512px" height="512px" viewBox="0 0 49.647 13.845">
  <g id="payza-logo_Активна_" data-name="payza-logo (Активна)" transform="translate(0 -17.901)">
    <g id="Group_366" data-name="Group 366">
      <g id="Group_365" data-name="Group 365">
        <path id="Path_105" data-name="Path 105" d="M20.388,20.586a4.645,4.645,0,0,0-1.407-.268,7.748,7.748,0,0,0-3.092.443.17.17,0,0,0-.133.191q.008,3.974,0,7.95v.146h2.406V25.985h.1c.412-.017.828-.011,1.238-.058a3.335,3.335,0,0,0,1.512-.543,2.5,2.5,0,0,0,1.12-2.035A2.573,2.573,0,0,0,20.388,20.586Zm-.659,3.177a1.073,1.073,0,0,1-1.188.846c-.089,0-.178-.014-.268-.014s-.111-.032-.109-.116c0-.439,0-.878,0-1.316s0-.869,0-1.3c0-.092.026-.141.116-.142a3.947,3.947,0,0,1,.688.006.917.917,0,0,1,.761.76A2.628,2.628,0,0,1,19.729,23.763Z" fill="#34c28d"/>
      </g>
    </g>
    <g id="Group_368" data-name="Group 368">
      <g id="Group_367" data-name="Group 367">
        <path id="Path_106" data-name="Path 106" d="M11.319,21.028a4.146,4.146,0,0,0-1.443-1.837A6.555,6.555,0,0,0,6.25,17.918a7.779,7.779,0,0,0-2.7.285A5.04,5.04,0,0,0,.783,20.028a3.467,3.467,0,0,0-.63,1.308,6.637,6.637,0,0,0,.026,2.948A6.309,6.309,0,0,0,2.763,28.2a4.9,4.9,0,0,0,2.848.9,1.314,1.314,0,0,0,.2-.025c0-.016.005-.029.006-.046-.041-.021-.079-.048-.122-.067-.106-.039-.216-.071-.322-.11A2.471,2.471,0,0,1,3.747,27.19a3.228,3.228,0,0,1-.092-.624c-.011-.1.051-.168.167-.152.043.007.087.015.132.021.352.062.7.139,1.055.18a7.094,7.094,0,0,0,3.16-.346,5.325,5.325,0,0,0,2.658-1.854A3.387,3.387,0,0,0,11.319,21.028ZM8.687,23.275a3.058,3.058,0,0,1-1.413.98,5.291,5.291,0,0,1-1.984.316,3.281,3.281,0,0,1-1.122-.192,1.587,1.587,0,0,1-1.027-1.164A3.023,3.023,0,0,1,3.1,21.8,1.929,1.929,0,0,1,4.59,20.319a2.391,2.391,0,0,1,.356-.073c.242-.029.485-.044.614-.055a4.972,4.972,0,0,1,2.273.47,2.308,2.308,0,0,1,.927.806A1.526,1.526,0,0,1,8.687,23.275Z" fill="#34c28d"/>
      </g>
    </g>
    <g id="Group_370" data-name="Group 370">
      <g id="Group_369" data-name="Group 369">
        <path id="Path_107" data-name="Path 107" d="M39.345,27.536C40,25.789,40.65,24.062,41.3,22.328H36.583v1.51h1.809c-.678,1.744-1.35,3.475-2.021,5.208h4.956v-1.51Z" fill="#34c28d"/>
      </g>
    </g>
    <g id="Group_372" data-name="Group 372">
      <g id="Group_371" data-name="Group 371">
        <path id="Path_108" data-name="Path 108" d="M48.793,22.218h-.416c0,.012,0,.022,0,.033l.163.026c0,.213,0,.42,0,.627,0,.025.03.053.048.08.016-.027.045-.054.045-.08,0-.17,0-.342,0-.513a.913.913,0,0,1,.01-.115c.064-.013.109-.021.154-.028Q48.8,22.231,48.793,22.218Z" fill="#34c28d"/>
      </g>
    </g>
    <g id="Group_374" data-name="Group 374">
      <g id="Group_373" data-name="Group 373">
        <path id="Path_109" data-name="Path 109" d="M49.563,22.272c-.009-.025-.042-.066-.053-.064a.121.121,0,0,0-.074.056c-.036.111-.065.227-.1.339-.021.073-.041.147-.062.22a4,4,0,0,1-.179-.543c-.021-.074-.055-.091-.127-.061-.029.251-.062.5-.09.755a.321.321,0,0,0,.043.017.341.341,0,0,0,.043-.1c.021-.176.039-.353.06-.53.1.208.133.427.216.631l.044,0c.062-.206.122-.413.182-.618h.024c.005.037.013.074.017.112.017.146.027.291.047.437,0,.026.037.049.06.072.012-.007.021-.016.033-.022C49.621,22.739,49.593,22.5,49.563,22.272Z" fill="#34c28d"/>
      </g>
    </g>
    <g id="Group_376" data-name="Group 376">
      <g id="Group_375" data-name="Group 375">
        <path id="Path_110" data-name="Path 110" d="M35.818,22.321c-.662,0-1.325,0-1.991,0-.12,0-.161.032-.186.146-.139.627-.286,1.251-.428,1.878q-.249,1.111-.482,2.226c-.033.157-.044.319-.065.479-.213-1.594-.606-3.146-.877-4.722H29.232c.022.067.039.124.059.182q1.082,3.219,2.161,6.445a.367.367,0,0,1-.007.2c-.176.439-.359.871-.543,1.308-.177.418-.349.838-.534,1.276h.153c.729,0,1.455,0,2.184,0,.109,0,.145-.036.176-.131q1.522-4.583,3.047-9.159c.015-.04.022-.081.039-.135Z" fill="#34c28d"/>
      </g>
    </g>
    <g id="Group_378" data-name="Group 378">
      <g id="Group_377" data-name="Group 377">
        <path id="Path_111" data-name="Path 111" d="M28.636,24.734a3.873,3.873,0,0,0-.049-.628,2.029,2.029,0,0,0-1.457-1.739,4.386,4.386,0,0,0-.99-.179,6.75,6.75,0,0,0-2.325.264c-.257.07-.508.16-.772.245.172.472.336.919.5,1.368.164-.063.31-.122.46-.169a4.2,4.2,0,0,1,1.678-.231c.437.043.695.252.736.612a2.788,2.788,0,0,1,0,.367c-.217.025-.427.048-.636.077a6.5,6.5,0,0,0-1.88.489,1.915,1.915,0,0,0-1.245,1.727,1.876,1.876,0,0,0,1.227,1.951,3.909,3.909,0,0,0,.734.215,7.765,7.765,0,0,0,2.308.039,5.571,5.571,0,0,0,1.6-.4.156.156,0,0,0,.111-.17C28.638,27.3,28.642,26.013,28.636,24.734Zm-2.331,3.121a1.613,1.613,0,0,1-.89-.032.825.825,0,0,1-.552-.773,1.031,1.031,0,0,1,.68-1.143,2.645,2.645,0,0,1,.881-.183v.117c0,.621,0,1.236,0,1.854C26.426,27.791,26.4,27.839,26.305,27.855Z" fill="#34c28d"/>
      </g>
    </g>
    <g id="Group_380" data-name="Group 380">
      <g id="Group_379" data-name="Group 379">
        <path id="Path_112" data-name="Path 112" d="M48.092,24.808a4.922,4.922,0,0,0-.033-.584,2.133,2.133,0,0,0-.844-1.547,2.778,2.778,0,0,0-1.343-.472,6.778,6.778,0,0,0-2.479.211c-.3.078-.592.18-.9.273.173.474.337.923.5,1.365.244-.081.473-.168.708-.233a3.8,3.8,0,0,1,1.443-.158.743.743,0,0,1,.719.978c-.264.035-.529.064-.794.1a6.054,6.054,0,0,0-1.757.487,1.889,1.889,0,0,0-1.193,1.974,1.806,1.806,0,0,0,1.009,1.587,3.169,3.169,0,0,0,.944.313,8.02,8.02,0,0,0,2.31.037,5.808,5.808,0,0,0,1.582-.383.188.188,0,0,0,.135-.207C48.092,27.3,48.094,26.056,48.092,24.808ZM45.76,27.854a1.627,1.627,0,0,1-.912-.041.874.874,0,0,1-.532-.938.992.992,0,0,1,.647-.954,3.083,3.083,0,0,1,.9-.212c0,.052.009.091.009.132,0,.618,0,1.235,0,1.853C45.879,27.788,45.849,27.837,45.76,27.854Z" fill="#34c28d"/>
      </g>
    </g>
  </g>
</svg>
