<svg xmlns="http://www.w3.org/2000/svg" width="512px" height="512px" viewBox="0 0 16 16">
  <path id="PM_Активный_" data-name="PM (Активный)" d="M2441-1951a8.009,8.009,0,0,1-8-8,8.009,8.009,0,0,1,8-8,8.009,8.009,0,0,1,8,8A8.009,8.009,0,0,1,2441-1951Zm.038-10.422,2.509,5.5h.108l2.178-6.075v4.941c0,.639-.206.936-.648.936v.117h2.3v-.117c-.344,0-.756-.163-.756-.936v-4.374c0-.533.227-.792.693-.792v-.117h-1.593l-1.791,5.094-2.34-5.094h-1.791v.117l.046,0a1.079,1.079,0,0,1,.962.591v3.384c0,.989-.145,2.124-1.278,2.124v.117h2.547v-.117c-1.021,0-1.152-1.135-1.152-2.124v-3.181Zm-6.41-.913v.117c.436,0,.576.206.576.846v4.167c0,.835-.139,1.089-.594,1.089v.117h2.376v-.117c-.585,0-.891-.05-.891-1.116v-1.476h.162c1.932,0,2.979-.288,2.979-1.809s-1.047-1.818-2.979-1.818Zm1.629,3.51h-.162v-3.393h.195c1.01,0,1.965,0,1.965,1.7S2437.329-1958.826,2436.257-1958.826Z" transform="translate(-2433 1967)" fill="#34c28d"/>
</svg>
