<svg xmlns="http://www.w3.org/2000/svg" width="512px" height="512px" viewBox="0 0 42.192 14.067">
  <g id="Qiwi" transform="translate(-502 -578.948)">
    <g id="surface901" transform="translate(502 578.948)">
      <path id="Path_113" data-name="Path 113" d="M16.33,0a6.33,6.33,0,1,0,0,12.661,9.839,9.839,0,0,0,1.7-.157,7.368,7.368,0,0,1,1.25-.125,5.333,5.333,0,0,1,3.727,1.592.282.282,0,0,0,.212.1.276.276,0,0,0,.152-.045.281.281,0,0,0,.1-.351c-.031-.07-.8-1.718-3.86-2.428l-.084-.023a4.075,4.075,0,0,1-1.817-.907,2.241,2.241,0,0,1-.69-1.079.284.284,0,0,0-.3-.23.281.281,0,0,0-.256.28,7.025,7.025,0,0,0,.1,1.117c-.084.006-.163.009-.24.009a4.08,4.08,0,1,1,4.08-4.08,4.023,4.023,0,0,1-.032.506,7.77,7.77,0,0,0-1.094-.084A.286.286,0,0,0,19,7.039a.282.282,0,0,0,.281.276,2.323,2.323,0,0,1,1.115.342,2.565,2.565,0,0,1,1.078,1.408.28.28,0,0,0,.241.216A.285.285,0,0,0,22,9.128a6.258,6.258,0,0,0,.658-2.8A6.337,6.337,0,0,0,16.33,0Zm4.258,9a.156.156,0,0,0-.152.077.543.543,0,0,0,.1.491c.122.182.225.275.307.275s.151-.094.115-.323c-.021-.136-.1-.432-.3-.5A.263.263,0,0,0,20.588,9Zm-.919.843a.42.42,0,0,0-.3.1c-.166.163-.091.448.163.625a.778.778,0,0,0,.428.123.51.51,0,0,0,.375-.134c.148-.158.063-.38-.216-.568A.823.823,0,0,0,19.669,9.847Zm0,0" transform="translate(-10)" fill="#d3d3d6"/>
    </g>
    <path id="Path_114" data-name="Path 114" d="M-30.538-3.606a21.632,21.632,0,0,0,2.311,1.784s.222.606,0,.383-2.485-1.531-3.058-1.98c0,0,.075.068-.644.068a3.8,3.8,0,0,1-1.976-.526,3.51,3.51,0,0,1-1.366-1.478A4.71,4.71,0,0,1-35.75-7.5a4.812,4.812,0,0,1,.482-2.162A3.393,3.393,0,0,1-33.9-11.147a3.934,3.934,0,0,1,1.99-.509,3.858,3.858,0,0,1,2,.528,3.451,3.451,0,0,1,1.36,1.478,4.784,4.784,0,0,1,.468,2.143,4.979,4.979,0,0,1-.3,1.782A4.023,4.023,0,0,1-30.538-3.606Zm.433-1.333a3.3,3.3,0,0,0,.936-2.568,4.078,4.078,0,0,0-.331-1.7,2.547,2.547,0,0,0-.969-1.131,2.627,2.627,0,0,0-1.432-.4,2.621,2.621,0,0,0-1.971.813A3.375,3.375,0,0,0-34.655-7.5a3.414,3.414,0,0,0,.775,2.4A2.576,2.576,0,0,0-31.9-4.26a2.721,2.721,0,0,0,1.073-.214Zm3.641,1.451v-8.026H-25.4v8.026Zm4.336,0-2.13-8.026h1.089l1.221,5.261q.2.827.339,1.642.307-1.287.361-1.484l1.527-5.42h1.281l1.15,4.062a21.524,21.524,0,0,1,.624,2.841q.153-.761.4-1.746l1.259-5.157h1.068l-2.2,8.026h-1.024L-18.855-9.6q-.214-.766-.252-.942-.126.553-.235.942l-1.7,6.115Zm9.362,0v-8.026h1.062v8.026Z" transform="translate(555.897 593.263)" fill="#d3d3d6"/>
  </g>
</svg>
