<svg xmlns="http://www.w3.org/2000/svg" width="512px" height="512px" viewBox="0 0 41.346 12.535">
  <g id="visaG" transform="translate(0 -175.6)">
    <path id="Path_82" data-name="Path 82" d="M184.8,192.213l2.1-11.813h3.281l-2.034,11.813Z" transform="translate(-169.64 -4.406)" fill="#34c28d"/>
    <path id="Path_83" data-name="Path 83" d="M184.8,192.213l2.691-11.813h2.691l-2.034,11.813Z" transform="translate(-169.64 -4.406)" fill="#34c28d"/>
    <path id="Path_84" data-name="Path 84" d="M258.041,176.125a8.324,8.324,0,0,0-3.019-.525c-3.281,0-5.644,1.641-5.644,4,0,1.772,1.641,2.691,2.953,3.281s1.706.984,1.706,1.509c0,.788-1.05,1.181-1.969,1.181a7.134,7.134,0,0,1-3.15-.656l-.459-.2L248,187.413a10.641,10.641,0,0,0,3.741.656c3.478,0,5.775-1.641,5.775-4.135,0-1.378-.853-2.428-2.822-3.281-1.181-.591-1.9-.919-1.9-1.509,0-.525.591-1.05,1.9-1.05a6.019,6.019,0,0,1,2.494.459l.328.131.525-2.56Z" transform="translate(-227.655)" fill="#34c28d"/>
    <path id="Path_85" data-name="Path 85" d="M258.041,176.125a8.324,8.324,0,0,0-3.019-.525c-3.281,0-5.053,1.641-5.053,4a3.431,3.431,0,0,0,2.363,3.281c1.313.591,1.706.984,1.706,1.509,0,.788-1.05,1.181-1.969,1.181a7.134,7.134,0,0,1-3.15-.656l-.459-.2L248,187.413a10.641,10.641,0,0,0,3.741.656c3.478,0,5.775-1.641,5.775-4.135,0-1.378-.853-2.428-2.822-3.281-1.181-.591-1.9-.919-1.9-1.509,0-.525.591-1.05,1.9-1.05a6.019,6.019,0,0,1,2.494.459l.328.131.525-2.56Z" transform="translate(-227.655)" fill="#34c28d"/>
    <path id="Path_86" data-name="Path 86" d="M365.029,180.4c-.788,0-1.378.066-1.706.853l-4.922,10.96h3.544l.656-1.969h4.2l.394,1.969h3.15L367.588,180.4Zm-1.509,7.875c.2-.591,1.313-3.478,1.313-3.478s.263-.722.459-1.181l.2,1.116s.656,2.953.788,3.61h-2.756Z" transform="translate(-328.998 -4.406)" fill="#34c28d"/>
    <path id="Path_87" data-name="Path 87" d="M365.816,180.4c-.788,0-1.378.066-1.706.853l-5.71,10.96h3.544l.656-1.969h4.2l.394,1.969h3.15L367.588,180.4Zm-2.3,7.875c.263-.656,1.313-3.478,1.313-3.478s.263-.722.459-1.181l.2,1.116s.656,2.953.788,3.61h-2.756Z" transform="translate(-328.998 -4.406)" fill="#34c28d"/>
    <path id="Path_88" data-name="Path 88" d="M56.122,189.4l-.328-1.706a9.514,9.514,0,0,0-4.594-5.185l2.953,10.5H57.7L63.013,181.2H59.469Z" transform="translate(-47 -5.141)" fill="#34c28d"/>
    <path id="Path_89" data-name="Path 89" d="M56.122,189.4l-.328-1.706a9.514,9.514,0,0,0-4.594-5.185l2.953,10.5H57.7L63.013,181.2H60.125Z" transform="translate(-47 -5.141)" fill="#34c28d"/>
    <path id="Path_90" data-name="Path 90" d="M0,180.4l.591.131c4.2.984,7.088,3.478,8.2,6.432l-1.181-5.578c-.2-.788-.788-.984-1.509-.984Z" transform="translate(0 -4.406)" fill="#34c28d"/>
    <path id="Path_91" data-name="Path 91" d="M0,180.4H0c4.2.984,7.679,3.544,8.794,6.5l-1.116-4.66A1.6,1.6,0,0,0,6.1,180.991Z" transform="translate(0 -4.406)" fill="#34c28d"/>
    <path id="Path_92" data-name="Path 92" d="M0,180.4H0c4.2.984,7.679,3.544,8.794,6.5l-.788-2.56a2.314,2.314,0,0,0-1.378-1.9Z" transform="translate(0 -4.406)" fill="#34c28d"/>
    <g id="Group_360" data-name="Group 360" transform="translate(4.266 177.306)">
      <path id="Path_93" data-name="Path 93" d="M60.138,202.963l-2.231-2.231-1.05,2.494-.263-1.641A9.514,9.514,0,0,0,52,196.4l2.953,10.5H58.5Z" transform="translate(-52 -196.4)" fill="#34c28d"/>
      <path id="Path_94" data-name="Path 94" d="M188.147,292.088l-2.822-2.888-.525,2.888Z" transform="translate(-173.906 -281.587)" fill="#34c28d"/>
      <path id="Path_95" data-name="Path 95" d="M253.71,274.8h0c.262.263.394.459.328.722,0,.788-1.05,1.181-1.969,1.181a7.133,7.133,0,0,1-3.15-.656l-.459-.2L248,278.541a10.642,10.642,0,0,0,3.741.656,6.5,6.5,0,0,0,4.791-1.641Z" transform="translate(-231.921 -268.368)" fill="#34c28d"/>
      <path id="Path_96" data-name="Path 96" d="M364,228.2h3.085l.656-1.969h4.2l.394,1.969h3.15l-1.116-4.791-3.938-3.806.2,1.05s.656,2.953.788,3.61H368.66c.263-.656,1.313-3.478,1.313-3.478s.263-.722.459-1.181" transform="translate(-338.405 -217.697)" fill="#34c28d"/>
    </g>
  </g>
</svg>
