<svg xmlns="http://www.w3.org/2000/svg" width="512px" height="512px" viewBox="0 0 42.44 14.804">
  <g id="yandex-pay-logo_Активна_" data-name="yandex-pay-logo (Активна)" transform="translate(0 -15.98)">
    <g id="Group_382" data-name="Group 382" transform="translate(32.46 20.254)">
      <g id="Group_381" data-name="Group 381" transform="translate(0 0)">
        <path id="Path_115" data-name="Path 115" d="M47.5,24.7a.665.665,0,0,0-.725-.523c-.122,0-.243.01-.361,0-.233-.024-.295.054-.293.239.011.908.008,1.815,0,2.72A1.269,1.269,0,0,1,45.1,28.222c-1.729.38-3.457.765-5.188,1.141a2.729,2.729,0,0,1-.6.062.332.332,0,0,1-.243-.13c-.024-.042.052-.145.112-.2a.937.937,0,0,1,.282-.15c.317-.113.64-.216.961-.323,1.284-.427,2.571-.849,3.853-1.279a1.156,1.156,0,0,0,.9-1.068c.029-1.577.015-3.155.008-4.734a.578.578,0,0,0-.427-.566,1.168,1.168,0,0,0-.941.117q-2.726,1.3-5.454,2.6a1.238,1.238,0,0,0-.831,1.15c.006,1.492,0,2.981,0,4.471a.71.71,0,0,0,.031.221,1.253,1.253,0,0,0,1.285.8c1.279,0,2.562,0,3.842,0s2.547,0,3.822,0a1.119,1.119,0,0,0,.739-.228.844.844,0,0,0,.255-.765q0-2.179,0-4.359A1.428,1.428,0,0,0,47.5,24.7Zm-5.318-.466a.95.95,0,0,1,.839-.6.5.5,0,0,1,.572.4c.061.394-.432.853-.918.851C42.27,24.885,42.043,24.6,42.184,24.237Z" transform="translate(-37.538 -20.922)" fill="#34c28d"/>
      </g>
    </g>
    <g id="Group_384" data-name="Group 384" transform="translate(5.026 17.798)">
      <g id="Group_383" data-name="Group 383" transform="translate(0 0)">
        <path id="Path_116" data-name="Path 116" d="M7.369,18.086v1.365H6.346v-1.37H5.812v3.379h.551V19.948H7.372v1.515h.544V18.086Z" transform="translate(-5.812 -18.082)" fill="#34c28d"/>
      </g>
    </g>
    <g id="Group_386" data-name="Group 386" transform="translate(16.408 23.589)">
      <g id="Group_385" data-name="Group 385">
        <path id="Path_117" data-name="Path 117" d="M22.743,28.294A1.73,1.73,0,0,0,21,26.923c-.384-.029-.775-.005-1.189-.005V24.779h-.834v5.946c.617,0,1.212.035,1.8-.01a2.024,2.024,0,0,0,1.868-1.135A2.1,2.1,0,0,0,22.743,28.294Zm-1.289.9c-.155.657-.828.967-1.639.775,0-.73,0-1.448.007-2.167,0-.048.083-.125.143-.137.811-.172,1.353.1,1.494.775A1.788,1.788,0,0,1,21.454,29.2Z" transform="translate(-18.975 -24.779)" fill="#34c28d"/>
      </g>
    </g>
    <g id="Group_388" data-name="Group 388" transform="translate(1.057 15.98)">
      <g id="Group_387" data-name="Group 387">
        <path id="Path_118" data-name="Path 118" d="M3.888,15.98H3.006a1.506,1.506,0,0,0-1.042.378A1.642,1.642,0,0,0,2.54,19.2c-.434.652-.866,1.3-1.318,1.984.184,0,.326-.01.464,0a.336.336,0,0,0,.362-.179c.323-.525.667-1.042,1-1.563.155-.239.174-.246.539-.176v1.9h.619V16.237C4.209,15.98,4.208,15.981,3.888,15.98Zm-.316,2.743c-.421,0-.86.1-1.181-.215a1.164,1.164,0,0,1-.336-1.235,1.13,1.13,0,0,1,.044-.105c.273-.629.634-.8,1.474-.7Z" transform="translate(-1.222 -15.98)" fill="#34c28d"/>
      </g>
    </g>
    <g id="Group_390" data-name="Group 390" transform="translate(16.717 17.655)">
      <g id="Group_389" data-name="Group 389" transform="translate(0 0)">
        <path id="Path_119" data-name="Path 119" d="M21.642,20.954c-.917.306-1.55.029-1.716-.77a2.186,2.186,0,0,1,.1-1.235c.2-.552.61-.716,1.284-.534a.157.157,0,0,0,.052-.006l.212-.266a1.368,1.368,0,0,0-1.736.183,2,2,0,0,0-.487,1.2,1.943,1.943,0,0,0,.344,1.416,1.494,1.494,0,0,0,1.555.527C21.678,21.371,21.727,21.326,21.642,20.954Z" transform="translate(-19.332 -17.917)" fill="#34c28d"/>
      </g>
    </g>
    <g id="Group_392" data-name="Group 392" transform="translate(0 23.59)">
      <g id="Group_391" data-name="Group 391" transform="translate(0 0)">
        <path id="Path_120" data-name="Path 120" d="M4.5,30.023V24.781H1.37c-.043.89-.064,1.765-.135,2.638a6.532,6.532,0,0,1-.577,2.266.488.488,0,0,1-.595.342.156.156,0,0,0-.063.02v1.923H.935V30.7H4.32v1.273h.908V30.023Zm-1.014-.007H1.437c.175-.438.388-.868.518-1.315a9.982,9.982,0,0,0,.265-2.739c0-.142,0-.285,0-.441H3.487C3.487,27.008,3.487,28.5,3.487,30.016Z" transform="translate(0 -24.781)" fill="#34c28d"/>
      </g>
    </g>
    <g id="Group_394" data-name="Group 394" transform="translate(11.06 17.647)">
      <g id="Group_393" data-name="Group 393" transform="translate(0 0)">
        <path id="Path_121" data-name="Path 121" d="M15.031,21c-.158.046-.31.1-.47.133a.8.8,0,0,1-.929-.288,1.791,1.791,0,0,1-.176-1.045h1.673a2.192,2.192,0,0,0-.38-1.534.846.846,0,0,0-1.257-.139,1.6,1.6,0,0,0-.385.452,2.313,2.313,0,0,0-.3,1.45,3.214,3.214,0,0,0,.257.918,1.073,1.073,0,0,0,1.148.595,3.3,3.3,0,0,0,.73-.177C15.2,21.274,15.21,21.191,15.031,21Zm-1.3-2.478a.4.4,0,0,1,.667.018,1.427,1.427,0,0,1,.2.889H13.436A1.508,1.508,0,0,1,13.734,18.52Z" transform="translate(-12.791 -17.908)" fill="#34c28d"/>
      </g>
    </g>
    <g id="Group_396" data-name="Group 396" transform="translate(11.108 23.581)">
      <g id="Group_395" data-name="Group 395" transform="translate(0 0)">
        <path id="Path_122" data-name="Path 122" d="M16.576,24.89c-.036-.044-.082-.111-.128-.112-.276-.011-.553-.007-.858-.007v2.444H13.8V24.775h-.955v5.968h.967V30.51c0-.7,0-1.39,0-2.086,0-.383,0-.383.458-.383H15.6v2.7h.97c0-.066.011-.122.011-.176V24.963C16.579,24.938,16.591,24.907,16.576,24.89Z" transform="translate(-12.846 -24.77)" fill="#34c28d"/>
      </g>
    </g>
    <g id="Group_398" data-name="Group 398" transform="translate(14.151 17.781)">
      <g id="Group_397" data-name="Group 397" transform="translate(0 0)">
        <path id="Path_123" data-name="Path 123" d="M17.586,19.405c.334-.384.653-.776.977-1.164.04-.048.074-.1.13-.17a2.05,2.05,0,0,1-.224,0,.491.491,0,0,0-.51.214c-.285.374-.6.73-.9,1.092-.035.041-.078.076-.161.157V18.08h-.528v3.3H16.9c0-.392-.009-.776.005-1.158a1.942,1.942,0,0,1,.1-.394.534.534,0,0,1,.186.178c.276.414.548.828.827,1.24.036.054.1.128.157.136a4.305,4.305,0,0,0,.514.007c-.387-.59-.749-1.147-1.119-1.7A.2.2,0,0,1,17.586,19.405Z" transform="translate(-16.365 -18.063)" fill="#34c28d"/>
      </g>
    </g>
    <g id="Group_400" data-name="Group 400" transform="translate(25.133 23.569)">
      <g id="Group_399" data-name="Group 399" transform="translate(0 0)">
        <path id="Path_124" data-name="Path 124" d="M32.006,24.757a.249.249,0,0,0-.281.157c-.374.825-.758,1.646-1.14,2.468-.167.36-.34.719-.508,1.079l-.046-.007V24.772h-.966v5.977h.949q.9-1.953,1.813-3.928v3.925h1.091V24.761C32.6,24.761,32.305,24.77,32.006,24.757Z" transform="translate(-29.065 -24.757)" fill="#34c28d"/>
      </g>
    </g>
    <g id="Group_402" data-name="Group 402" transform="translate(5.814 23.356)">
      <g id="Group_401" data-name="Group 401">
        <path id="Path_125" data-name="Path 125" d="M10.694,29.857c-.3.092-.564.2-.846.254-.916.188-1.514-.066-1.775-.73a4.4,4.4,0,0,1-.2-1.593h2.989c-.042-.463-.046-.914-.13-1.351a2.84,2.84,0,0,0-.754-1.513,1.36,1.36,0,0,0-1.432-.346,1.923,1.923,0,0,0-1.218.991,4.506,4.506,0,0,0-.232,4.042,1.839,1.839,0,0,0,.92,1,3.112,3.112,0,0,0,2.864-.306C10.815,30.152,10.751,29.995,10.694,29.857ZM8.322,25.624a.708.708,0,0,1,.643-.345.719.719,0,0,1,.614.387,2.825,2.825,0,0,1,.316,1.5H7.842A3.009,3.009,0,0,1,8.322,25.624Z" transform="translate(-6.724 -24.51)" fill="#34c28d"/>
      </g>
    </g>
    <g id="Group_404" data-name="Group 404" transform="translate(7.726 17.798)">
      <g id="Group_403" data-name="Group 403" transform="translate(0 0)">
        <path id="Path_126" data-name="Path 126" d="M11.442,21.013V18.082H9.675c0,.22.008.417,0,.615a5.536,5.536,0,0,1-.342,2.036c-.071.163-.124.336-.4.3V22.1h.509v-.691h1.914v.687h.482V21.028Zm-.558,0H9.694a4.63,4.63,0,0,0,.483-2.515h.706Z" transform="translate(-8.935 -18.082)" fill="#34c28d"/>
      </g>
    </g>
    <g id="Group_406" data-name="Group 406" transform="translate(21.071 23.583)">
      <g id="Group_405" data-name="Group 405">
        <path id="Path_127" data-name="Path 127" d="M24.367,24.772c0,2,0,3.987,0,5.974h.883V25.373h2.692v-.6Z" transform="translate(-24.367 -24.772)" fill="#34c28d"/>
      </g>
    </g>
  </g>
</svg>
